<svg width="120" height="120" viewBox="0 0 120 120" fill="none" xmlns="http://www.w3.org/2000/svg">
<path d="M24.2323 104.772H2.39999C1.50192 104.772 0.774181 104.044 0.774181 103.146V24.2323C0.774181 23.3342 1.50192 22.6064 2.39999 22.6064H24.2323C25.1303 22.6064 25.8581 23.3342 25.8581 24.2323V103.146C25.8581 104.044 25.1303 104.772 24.2323 104.772ZM4.0258 101.52H22.6064V25.8581H4.0258V101.52Z" fill="black"/>
<path d="M24.2323 40.8386H2.39999C1.50192 40.8386 0.774181 40.1109 0.774181 39.2128C0.774181 38.3148 1.50192 37.587 2.39999 37.587H24.2323C25.1303 37.587 25.8581 38.3148 25.8581 39.2128C25.8581 40.1109 25.1303 40.8386 24.2323 40.8386Z" fill="black"/>
<path d="M24.2323 50.8567H2.39999C1.50192 50.8567 0.774181 50.129 0.774181 49.2309C0.774181 48.3328 1.50192 47.6051 2.39999 47.6051H24.2323C25.1303 47.6051 25.8581 48.3328 25.8581 49.2309C25.8581 50.129 25.1303 50.8567 24.2323 50.8567Z" fill="black"/>
<path d="M17.5045 82.3819H9.12772C8.22966 82.3819 7.50191 81.6541 7.50191 80.7561C7.50191 79.858 8.22966 79.1302 9.12772 79.1302H17.5045C18.4026 79.1302 19.1303 79.858 19.1303 80.7561C19.1303 81.6541 18.4026 82.3819 17.5045 82.3819Z" fill="black"/>
<path d="M97.347 104.772C96.7045 104.772 96.0929 104.385 95.8374 103.75L66.3871 30.5343C66.0542 29.6981 66.4567 28.7536 67.2851 28.4207L87.538 20.2762C87.9406 20.1136 88.3819 20.1213 88.7845 20.2917C89.1793 20.462 89.4967 20.7794 89.6516 21.182L119.102 94.3975C119.264 94.8001 119.257 95.2414 119.086 95.6439C118.916 96.0388 118.599 96.3562 118.196 96.511L97.9432 104.656C97.7574 104.733 97.5483 104.772 97.347 104.772ZM70.0103 30.8362L98.2451 101.032L115.479 94.0956L87.2438 23.8994L70.0103 30.8362Z" fill="black"/>
<path d="M73.4864 45.4529C72.8438 45.4529 72.2322 45.0658 71.9767 44.431C71.6438 43.5949 72.0464 42.6503 72.8748 42.3174L93.1354 34.1729C93.9716 33.84 94.9161 34.2426 95.249 35.071C95.5819 35.9071 95.1793 36.8516 94.3509 37.1845L74.0903 45.3368C73.889 45.4142 73.6877 45.4529 73.4864 45.4529Z" fill="black"/>
<path d="M77.2258 54.751C76.5832 54.751 75.9716 54.3639 75.7161 53.7291C75.3832 52.8929 75.7858 51.9484 76.6142 51.6155L96.8671 43.471C97.7032 43.1381 98.6477 43.5407 98.9806 44.3691C99.3135 45.2052 98.911 46.1497 98.0826 46.4826L77.8297 54.6271C77.6284 54.7123 77.4271 54.751 77.2258 54.751Z" fill="black"/>
<path d="M96.178 81.1046C95.5355 81.1046 94.9238 80.7176 94.6684 80.0827C94.3355 79.2466 94.738 78.3021 95.5664 77.9692L101.435 75.6079C102.271 75.2749 103.215 75.6775 103.548 76.5059C103.881 77.3421 103.479 78.2866 102.65 78.6195L96.7819 80.9808C96.5883 81.0659 96.3793 81.1046 96.178 81.1046Z" fill="black"/>
<path d="M46.0645 35.6129H24.2322C23.3342 35.6129 22.6064 34.8852 22.6064 33.9871C22.6064 33.0891 23.3342 32.3613 24.2322 32.3613H46.0645C46.9626 32.3613 47.6903 33.0891 47.6903 33.9871C47.6903 34.8852 46.9626 35.6129 46.0645 35.6129Z" fill="black"/>
<path d="M39.3368 81.6387H30.96C30.0619 81.6387 29.3342 80.911 29.3342 80.0129C29.3342 79.1148 30.0619 78.3871 30.96 78.3871H39.3368C40.2348 78.3871 40.9626 79.1148 40.9626 80.0129C40.9626 80.911 40.2348 81.6387 39.3368 81.6387Z" fill="black"/>
<path d="M39.3368 91.1923H30.96C30.0619 91.1923 29.3342 90.4645 29.3342 89.5665C29.3342 88.6684 30.0619 87.9407 30.96 87.9407H39.3368C40.2348 87.9407 40.9626 88.6684 40.9626 89.5665C40.9626 90.4645 40.2348 91.1923 39.3368 91.1923Z" fill="black"/>
<path d="M39.3368 68.0516H30.96C30.0619 68.0516 29.3342 67.3238 29.3342 66.4258V44.2142C29.3342 43.3161 30.0619 42.5884 30.96 42.5884H39.3368C40.2348 42.5884 40.9626 43.3161 40.9626 44.2142V66.4258C40.9626 67.3238 40.2348 68.0516 39.3368 68.0516ZM32.5858 64.8H37.7109V45.84H32.5858V64.8Z" fill="black"/>
<path d="M67.8967 104.772H46.0645C45.1664 104.772 44.4387 104.044 44.4387 103.146V16.8542C44.4387 15.9561 45.1664 15.2284 46.0645 15.2284H67.8967C68.7948 15.2284 69.5226 15.9561 69.5226 16.8542V103.154C69.5226 104.044 68.7948 104.772 67.8967 104.772ZM47.6903 101.52H66.2709V18.48H47.6903V101.52Z" fill="black"/>
<path d="M67.8967 32.9729H46.0645C45.1664 32.9729 44.4387 32.2452 44.4387 31.3471C44.4387 30.4491 45.1664 29.7213 46.0645 29.7213H67.8967C68.7948 29.7213 69.5226 30.4491 69.5226 31.3471C69.5226 32.2452 68.7948 32.9729 67.8967 32.9729Z" fill="black"/>
<path d="M67.8967 42.991H46.0645C45.1664 42.991 44.4387 42.2633 44.4387 41.3652C44.4387 40.4671 45.1664 39.7394 46.0645 39.7394H67.8967C68.7948 39.7394 69.5225 40.4671 69.5225 41.3652C69.5225 42.2633 68.7948 42.991 67.8967 42.991Z" fill="black"/>
<path d="M46.0645 104.772H24.2322C23.3342 104.772 22.6064 104.044 22.6064 103.146C22.6064 102.248 23.3342 101.52 24.2322 101.52H46.0645C46.9626 101.52 47.6903 102.248 47.6903 103.146C47.6903 104.044 46.9626 104.772 46.0645 104.772Z" fill="black"/>
<path d="M61.169 80.075H52.7922C51.8941 80.075 51.1664 79.3472 51.1664 78.4492C51.1664 77.5511 51.8941 76.8234 52.7922 76.8234H61.169C62.067 76.8234 62.7948 77.5511 62.7948 78.4492C62.7948 79.3472 62.067 80.075 61.169 80.075Z" fill="black"/>
<path d="M61.169 89.6284H52.7922C51.8941 89.6284 51.1664 88.9007 51.1664 88.0026C51.1664 87.1046 51.8941 86.3768 52.7922 86.3768H61.169C62.067 86.3768 62.7948 87.1046 62.7948 88.0026C62.7948 88.9007 62.067 89.6284 61.169 89.6284Z" fill="black"/>
<path d="M56.9806 66.7355C53.7135 66.7355 51.058 64.08 51.058 60.813C51.058 57.5459 53.7135 54.8904 56.9806 54.8904C60.2477 54.8904 62.9032 57.5459 62.9032 60.813C62.9032 64.08 60.2477 66.7355 56.9806 66.7355ZM56.9806 58.142C55.5096 58.142 54.3096 59.342 54.3096 60.813C54.3096 62.2839 55.5096 63.4839 56.9806 63.4839C58.4516 63.4839 59.6516 62.2839 59.6516 60.813C59.6516 59.342 58.4516 58.142 56.9806 58.142Z" fill="black"/>
</svg>
