<svg width="1025" height="140" viewBox="0 0 1025 140" fill="none" xmlns="http://www.w3.org/2000/svg">
<g clip-path="url(#clip0)">
<path d="M39.757 67.3851L53.5676 25.9529C54.0791 24.4179 53.2496 22.7587 51.7146 22.247C50.1799 21.7355 48.5205 22.565 48.0088 24.1L34.1982 65.5322C33.6867 67.0672 34.5162 68.7263 36.0512 69.2381C36.3584 69.3404 36.6709 69.389 36.9779 69.389C38.2045 69.3892 39.3477 68.6129 39.757 67.3851Z" fill="black"/>
<path d="M60.4557 54.5319C65.3019 54.5319 69.2447 50.5891 69.2447 45.7428C69.2447 40.8965 65.3019 36.9537 60.4557 36.9537C55.6094 36.9537 51.6666 40.8965 51.6666 45.7428C51.6666 50.5891 55.6094 54.5319 60.4557 54.5319ZM60.4557 42.8131C62.0711 42.8131 63.3853 44.1274 63.3853 45.7428C63.3853 47.3582 62.0711 48.6725 60.4557 48.6725C58.8402 48.6725 57.526 47.3582 57.526 45.7428C57.526 44.1274 58.8402 42.8131 60.4557 42.8131Z" fill="black"/>
<path d="M27.31 36.9537C22.4637 36.9537 18.5209 40.8965 18.5209 45.7428C18.5209 50.5891 22.4637 54.5319 27.31 54.5319C32.1562 54.5319 36.099 50.5891 36.099 45.7428C36.099 40.8965 32.1564 36.9537 27.31 36.9537ZM27.31 48.6725C25.6945 48.6725 24.3803 47.3582 24.3803 45.7428C24.3803 44.1274 25.6945 42.8131 27.31 42.8131C28.9254 42.8131 30.2396 44.1274 30.2396 45.7428C30.2396 47.3582 28.9256 48.6725 27.31 48.6725Z" fill="black"/>
<path d="M99.4143 36.3283L89.198 22.7066L89.5967 19.917C89.727 19.0041 89.4201 18.083 88.768 17.4311L82.5531 11.2162L88.7678 5.00137C89.9119 3.85742 89.9119 2.00234 88.7678 0.858203C87.6238 -0.285742 85.7687 -0.285742 84.6246 0.858203L78.41 7.07305L72.1951 0.858203C71.5432 0.206055 70.6221 -0.0998047 69.7092 0.0294921L40.7066 4.17266C40.0791 4.2623 39.4977 4.55312 39.0494 5.00137L3.1416 40.9092C-1.04687 45.0975 -1.04687 51.9127 3.1416 56.101L33.525 86.4846C34.1465 87.106 34.827 87.6332 35.5471 88.0701V89.258C35.5471 95.1812 40.366 100 46.2893 100H89.258C95.1812 100 100 95.1812 100 89.258V38.0861C100 37.4523 99.7945 36.8354 99.4143 36.3283ZM7.28477 51.9578C5.38086 50.0539 5.38086 46.9562 7.28477 45.0523L42.5019 9.83516L69.0875 6.0373L74.2666 11.2164L70.1234 15.3596L68.0518 13.2879C66.9078 12.1439 65.0527 12.1439 63.9086 13.2879C62.7645 14.4318 62.7645 16.2869 63.9086 17.4311L72.1951 25.7176C72.7672 26.2896 73.517 26.5758 74.2666 26.5758C75.0162 26.5758 75.7662 26.2896 76.3381 25.7176C77.4822 24.5736 77.4822 22.7186 76.3381 21.5744L74.2664 19.5027L78.4096 15.3596L83.5887 20.5387L79.7906 47.1242L44.5736 82.3414C43.6514 83.2637 42.4252 83.7715 41.1209 83.7715C39.8166 83.7715 38.5904 83.2635 37.6682 82.3414L7.28477 51.9578ZM94.1408 89.258C94.1408 91.9504 91.9504 94.1408 89.258 94.1408H46.2893C43.7182 94.1408 41.6064 92.1432 41.4211 89.6186C44.0709 89.5451 46.6988 88.5025 48.7166 86.4846L84.6244 50.5768C85.0727 50.1285 85.3635 49.5471 85.4531 48.9195L88.026 30.9098L94.1408 39.0627V89.258Z" fill="black"/>
</g>
<path d="M319.232 104.772H297.4C296.502 104.772 295.774 104.044 295.774 103.146V24.2323C295.774 23.3342 296.502 22.6064 297.4 22.6064H319.232C320.13 22.6064 320.858 23.3342 320.858 24.2323V103.146C320.858 104.044 320.13 104.772 319.232 104.772ZM299.026 101.52H317.606V25.8581H299.026V101.52Z" fill="black"/>
<path d="M319.232 40.8386H297.4C296.502 40.8386 295.774 40.1109 295.774 39.2128C295.774 38.3148 296.502 37.587 297.4 37.587H319.232C320.13 37.587 320.858 38.3148 320.858 39.2128C320.858 40.1109 320.13 40.8386 319.232 40.8386Z" fill="black"/>
<path d="M319.232 50.8567H297.4C296.502 50.8567 295.774 50.129 295.774 49.2309C295.774 48.3328 296.502 47.6051 297.4 47.6051H319.232C320.13 47.6051 320.858 48.3328 320.858 49.2309C320.858 50.129 320.13 50.8567 319.232 50.8567Z" fill="black"/>
<path d="M312.504 82.3819H304.128C303.23 82.3819 302.502 81.6541 302.502 80.7561C302.502 79.858 303.23 79.1302 304.128 79.1302H312.504C313.403 79.1302 314.13 79.858 314.13 80.7561C314.13 81.6541 313.403 82.3819 312.504 82.3819Z" fill="black"/>
<path d="M392.347 104.772C391.704 104.772 391.093 104.385 390.837 103.75L361.387 30.5343C361.054 29.6981 361.457 28.7536 362.285 28.4207L382.538 20.2762C382.941 20.1136 383.382 20.1213 383.784 20.2917C384.179 20.462 384.497 20.7794 384.652 21.182L414.102 94.3975C414.264 94.8001 414.257 95.2414 414.086 95.6439C413.916 96.0388 413.599 96.3562 413.196 96.511L392.943 104.656C392.757 104.733 392.548 104.772 392.347 104.772ZM365.01 30.8362L393.245 101.032L410.479 94.0956L382.244 23.8994L365.01 30.8362Z" fill="black"/>
<path d="M368.486 45.4529C367.844 45.4529 367.232 45.0658 366.977 44.431C366.644 43.5949 367.046 42.6503 367.875 42.3174L388.135 34.1729C388.972 33.84 389.916 34.2426 390.249 35.071C390.582 35.9071 390.179 36.8516 389.351 37.1845L369.09 45.3368C368.889 45.4142 368.688 45.4529 368.486 45.4529Z" fill="black"/>
<path d="M372.226 54.751C371.583 54.751 370.972 54.3639 370.716 53.7291C370.383 52.8929 370.786 51.9484 371.614 51.6155L391.867 43.471C392.703 43.1381 393.648 43.5407 393.981 44.3691C394.314 45.2052 393.911 46.1497 393.083 46.4826L372.83 54.6271C372.628 54.7123 372.427 54.751 372.226 54.751Z" fill="black"/>
<path d="M391.178 81.1046C390.535 81.1046 389.924 80.7176 389.668 80.0827C389.335 79.2466 389.738 78.3021 390.566 77.9692L396.435 75.6079C397.271 75.2749 398.215 75.6775 398.548 76.5059C398.881 77.3421 398.479 78.2866 397.65 78.6195L391.782 80.9808C391.588 81.0659 391.379 81.1046 391.178 81.1046Z" fill="black"/>
<path d="M341.065 35.6129H319.232C318.334 35.6129 317.606 34.8852 317.606 33.9871C317.606 33.0891 318.334 32.3613 319.232 32.3613H341.065C341.963 32.3613 342.69 33.0891 342.69 33.9871C342.69 34.8852 341.963 35.6129 341.065 35.6129Z" fill="black"/>
<path d="M334.337 81.6387H325.96C325.062 81.6387 324.334 80.911 324.334 80.0129C324.334 79.1148 325.062 78.3871 325.96 78.3871H334.337C335.235 78.3871 335.963 79.1148 335.963 80.0129C335.963 80.911 335.235 81.6387 334.337 81.6387Z" fill="black"/>
<path d="M334.337 91.1923H325.96C325.062 91.1923 324.334 90.4645 324.334 89.5665C324.334 88.6684 325.062 87.9407 325.96 87.9407H334.337C335.235 87.9407 335.963 88.6684 335.963 89.5665C335.963 90.4645 335.235 91.1923 334.337 91.1923Z" fill="black"/>
<path d="M334.337 68.0516H325.96C325.062 68.0516 324.334 67.3238 324.334 66.4258V44.2142C324.334 43.3161 325.062 42.5884 325.96 42.5884H334.337C335.235 42.5884 335.963 43.3161 335.963 44.2142V66.4258C335.963 67.3238 335.235 68.0516 334.337 68.0516ZM327.586 64.8H332.711V45.84H327.586V64.8Z" fill="black"/>
<path d="M362.897 104.772H341.064C340.166 104.772 339.439 104.044 339.439 103.146V16.8542C339.439 15.9561 340.166 15.2284 341.064 15.2284H362.897C363.795 15.2284 364.523 15.9561 364.523 16.8542V103.154C364.523 104.044 363.795 104.772 362.897 104.772ZM342.69 101.52H361.271V18.48H342.69V101.52Z" fill="black"/>
<path d="M362.897 32.9729H341.064C340.166 32.9729 339.439 32.2452 339.439 31.3471C339.439 30.4491 340.166 29.7213 341.064 29.7213H362.897C363.795 29.7213 364.523 30.4491 364.523 31.3471C364.523 32.2452 363.795 32.9729 362.897 32.9729Z" fill="black"/>
<path d="M362.897 42.991H341.064C340.166 42.991 339.439 42.2633 339.439 41.3652C339.439 40.4671 340.166 39.7394 341.064 39.7394H362.897C363.795 39.7394 364.523 40.4671 364.523 41.3652C364.523 42.2633 363.795 42.991 362.897 42.991Z" fill="black"/>
<path d="M341.065 104.772H319.232C318.334 104.772 317.606 104.044 317.606 103.146C317.606 102.248 318.334 101.52 319.232 101.52H341.065C341.963 101.52 342.69 102.248 342.69 103.146C342.69 104.044 341.963 104.772 341.065 104.772Z" fill="black"/>
<path d="M356.169 80.075H347.792C346.894 80.075 346.166 79.3472 346.166 78.4492C346.166 77.5511 346.894 76.8234 347.792 76.8234H356.169C357.067 76.8234 357.795 77.5511 357.795 78.4492C357.795 79.3472 357.067 80.075 356.169 80.075Z" fill="black"/>
<path d="M356.169 89.6284H347.792C346.894 89.6284 346.166 88.9007 346.166 88.0026C346.166 87.1046 346.894 86.3768 347.792 86.3768H356.169C357.067 86.3768 357.795 87.1046 357.795 88.0026C357.795 88.9007 357.067 89.6284 356.169 89.6284Z" fill="black"/>
<path d="M351.981 66.7355C348.714 66.7355 346.058 64.08 346.058 60.813C346.058 57.5459 348.714 54.8904 351.981 54.8904C355.248 54.8904 357.903 57.5459 357.903 60.813C357.903 64.08 355.248 66.7355 351.981 66.7355ZM351.981 58.142C350.51 58.142 349.31 59.342 349.31 60.813C349.31 62.2839 350.51 63.4839 351.981 63.4839C353.452 63.4839 354.652 62.2839 354.652 60.813C354.652 59.342 353.452 58.142 351.981 58.142Z" fill="black"/>
<path d="M702.969 40.5H697.5V35.0312C697.498 33.5813 696.922 32.1913 695.896 31.166C694.871 30.1408 693.481 29.5641 692.031 29.5625H627.969C626.519 29.5641 625.129 30.1408 624.104 31.166C623.078 32.1913 622.502 33.5813 622.5 35.0312V40.5H617.031C615.581 40.5016 614.191 41.0783 613.166 42.1035C612.141 43.1288 611.564 44.5188 611.562 45.9688V105.344C611.564 106.794 612.141 108.184 613.166 109.209C614.191 110.234 615.581 110.811 617.031 110.812H646.99L644.76 118.625H638.125C637.711 118.625 637.313 118.79 637.02 119.083C636.727 119.376 636.562 119.773 636.562 120.188V124.875C636.562 125.289 636.727 125.687 637.02 125.98C637.313 126.273 637.711 126.438 638.125 126.438H681.875C682.289 126.438 682.687 126.273 682.98 125.98C683.273 125.687 683.438 125.289 683.438 124.875V120.188C683.438 119.773 683.273 119.376 682.98 119.083C682.687 118.79 682.289 118.625 681.875 118.625H675.24L673.01 110.812H702.969C704.419 110.811 705.809 110.234 706.834 109.209C707.859 108.184 708.436 106.794 708.438 105.344V45.9688C708.436 44.5188 707.859 43.1288 706.834 42.1035C705.809 41.0783 704.419 40.5016 702.969 40.5ZM625.625 35.0312C625.626 34.4098 625.873 33.814 626.312 33.3745C626.751 32.9351 627.347 32.688 627.969 32.6875H692.031C692.653 32.688 693.249 32.9351 693.688 33.3745C694.127 33.814 694.374 34.4098 694.375 35.0312V38.9375H625.625V35.0312ZM625.625 42.0625H694.375V89.7188C694.374 90.3402 694.127 90.936 693.688 91.3755C693.249 91.8149 692.653 92.062 692.031 92.0625H663.125V79.5625C663.123 77.9342 662.487 76.3708 661.351 75.2042C660.215 74.0376 658.669 73.3597 657.041 73.3145L650.625 72.0312V71.0957C652.017 70.4866 653.202 69.4853 654.034 68.2141C654.866 66.943 655.311 65.457 655.312 63.9375V57.6875C655.31 55.6161 654.487 53.6302 653.022 52.1655C651.557 50.7008 649.571 49.8771 647.5 49.875H644.375C642.304 49.8771 640.318 50.7008 638.853 52.1655C637.388 53.6302 636.565 55.6161 636.562 57.6875V63.9375C636.564 65.457 637.009 66.943 637.841 68.2141C638.673 69.4853 639.858 70.4866 641.25 71.0957V72.0312L634.834 73.3145C633.206 73.3597 631.66 74.0376 630.524 75.2042C629.388 76.3708 628.752 77.9342 628.75 79.5625V92.0625H627.969C627.347 92.062 626.751 91.8149 626.312 91.3755C625.873 90.936 625.626 90.3402 625.625 89.7188V42.0625ZM655.312 82.6875C654.898 82.6875 654.501 82.8521 654.208 83.1451C653.915 83.4382 653.75 83.8356 653.75 84.25V92.0625H638.125V84.25C638.125 83.8356 637.96 83.4382 637.667 83.1451C637.374 82.8521 636.977 82.6875 636.562 82.6875C636.148 82.6875 635.751 82.8521 635.458 83.1451C635.165 83.4382 635 83.8356 635 84.25V92.0625H631.875V79.5625C631.876 78.734 632.206 77.9398 632.791 77.354C633.377 76.7682 634.172 76.4386 635 76.4375C635.103 76.4378 635.206 76.4274 635.307 76.4062L641.623 75.1445C641.983 75.9913 642.584 76.7135 643.351 77.2211C644.118 77.7288 645.018 77.9995 645.938 77.9995C646.857 77.9995 647.757 77.7288 648.524 77.2211C649.291 76.7135 649.892 75.9913 650.252 75.1445L656.568 76.4062C656.669 76.4274 656.772 76.4378 656.875 76.4375C657.703 76.4386 658.498 76.7682 659.084 77.354C659.669 77.9398 659.999 78.734 660 79.5625V92.0625H656.875V84.25C656.875 83.8356 656.71 83.4382 656.417 83.1451C656.124 82.8521 655.727 82.6875 655.312 82.6875ZM652.188 60.2129V63.9375C652.186 65.1802 651.691 66.3715 650.813 67.2502C649.934 68.129 648.743 68.6233 647.5 68.625H644.375C643.132 68.6233 641.941 68.129 641.062 67.2502C640.184 66.3715 639.689 65.1802 639.688 63.9375V62.3379C642.4 62.2324 648.059 61.8203 652.188 60.2129ZM639.688 59.2129V57.6875C639.689 56.4448 640.184 55.2535 641.062 54.3748C641.941 53.496 643.132 53.0017 644.375 53H647.5C648.595 53.0017 649.655 53.3859 650.497 54.0864C651.338 54.7869 651.909 55.7594 652.109 56.8359C648.859 58.4961 643.047 59.0742 639.688 59.2129ZM647.5 71.75V73.3125C647.5 73.7269 647.335 74.1243 647.042 74.4174C646.749 74.7104 646.352 74.875 645.938 74.875C645.523 74.875 645.126 74.7104 644.833 74.4174C644.54 74.1243 644.375 73.7269 644.375 73.3125V71.75H647.5ZM680.312 121.75V123.312H639.688V121.75H680.312ZM648.01 118.625L650.24 110.812H669.76L671.99 118.625H648.01ZM705.312 105.344C705.312 105.965 705.065 106.561 704.625 107C704.186 107.44 703.59 107.687 702.969 107.688H617.031C616.41 107.687 615.814 107.44 615.375 107C614.935 106.561 614.688 105.965 614.688 105.344V101.438H705.312V105.344ZM705.312 98.3125H614.688V45.9688C614.688 45.3473 614.935 44.7515 615.375 44.312C615.814 43.8726 616.41 43.6255 617.031 43.625H622.5V89.7188C622.502 91.1687 623.078 92.5587 624.104 93.584C625.129 94.6092 626.519 95.1859 627.969 95.1875H692.031C693.481 95.1859 694.871 94.6092 695.896 93.584C696.922 92.5587 697.498 91.1687 697.5 89.7188V43.625H702.969C703.59 43.6255 704.186 43.8726 704.625 44.312C705.065 44.7515 705.312 45.3473 705.312 45.9688V98.3125Z" fill="black"/>
<path d="M628.75 37.375H630.312C630.727 37.375 631.124 37.2104 631.417 36.9174C631.71 36.6243 631.875 36.2269 631.875 35.8125C631.875 35.3981 631.71 35.0007 631.417 34.7076C631.124 34.4146 630.727 34.25 630.312 34.25H628.75C628.336 34.25 627.938 34.4146 627.645 34.7076C627.352 35.0007 627.188 35.3981 627.188 35.8125C627.188 36.2269 627.352 36.6243 627.645 36.9174C627.938 37.2104 628.336 37.375 628.75 37.375Z" fill="black"/>
<path d="M635 37.375H636.562C636.977 37.375 637.374 37.2104 637.667 36.9174C637.96 36.6243 638.125 36.2269 638.125 35.8125C638.125 35.3981 637.96 35.0007 637.667 34.7076C637.374 34.4146 636.977 34.25 636.562 34.25H635C634.586 34.25 634.188 34.4146 633.895 34.7076C633.602 35.0007 633.438 35.3981 633.438 35.8125C633.438 36.2269 633.602 36.6243 633.895 36.9174C634.188 37.2104 634.586 37.375 635 37.375Z" fill="black"/>
<path d="M641.25 37.375H642.812C643.227 37.375 643.624 37.2104 643.917 36.9174C644.21 36.6243 644.375 36.2269 644.375 35.8125C644.375 35.3981 644.21 35.0007 643.917 34.7076C643.624 34.4146 643.227 34.25 642.812 34.25H641.25C640.836 34.25 640.438 34.4146 640.145 34.7076C639.852 35.0007 639.688 35.3981 639.688 35.8125C639.688 36.2269 639.852 36.6243 640.145 36.9174C640.438 37.2104 640.836 37.375 641.25 37.375Z" fill="black"/>
<path d="M691.25 43.625H666.25C665.836 43.625 665.438 43.7896 665.145 44.0826C664.852 44.3757 664.688 44.7731 664.688 45.1875V71.75C664.688 72.1644 664.852 72.5618 665.145 72.8549C665.438 73.1479 665.836 73.3125 666.25 73.3125H691.25C691.664 73.3125 692.062 73.1479 692.355 72.8549C692.648 72.5618 692.812 72.1644 692.812 71.75V45.1875C692.812 44.7731 692.648 44.3757 692.355 44.0826C692.062 43.7896 691.664 43.625 691.25 43.625ZM685 70.1875H672.5V68.2344C672.501 67.0952 672.954 66.003 673.76 65.1975C674.566 64.392 675.658 63.9388 676.797 63.9375H680.703C681.842 63.9388 682.934 64.392 683.74 65.1975C684.546 66.003 684.999 67.0952 685 68.2344V70.1875ZM675.625 56.9062V53.7812C675.626 53.1598 675.873 52.564 676.312 52.1245C676.751 51.6851 677.347 51.438 677.969 51.4375H679.531C680.153 51.438 680.749 51.6851 681.188 52.1245C681.627 52.564 681.874 53.1598 681.875 53.7812V56.9062C681.874 57.5277 681.627 58.1235 681.188 58.563C680.749 59.0024 680.153 59.2495 679.531 59.25H677.969C677.347 59.2495 676.751 59.0024 676.312 58.563C675.873 58.1235 675.626 57.5277 675.625 56.9062ZM689.688 70.1875H688.125V68.2344C688.123 66.6608 687.622 65.1285 686.693 63.8579C685.765 62.5874 684.458 61.6442 682.959 61.1641C683.596 60.652 684.11 60.0037 684.463 59.2669C684.816 58.53 685 57.7234 685 56.9062V53.7812C684.998 52.3313 684.422 50.9413 683.396 49.916C682.371 48.8908 680.981 48.3141 679.531 48.3125H677.969C676.519 48.3141 675.129 48.8908 674.104 49.916C673.078 50.9413 672.502 52.3313 672.5 53.7812V56.9062C672.5 57.7234 672.684 58.53 673.037 59.2669C673.39 60.0037 673.904 60.652 674.541 61.1641C673.042 61.6442 671.735 62.5874 670.807 63.8579C669.878 65.1285 669.377 66.6608 669.375 68.2344V70.1875H667.812V46.75H689.688V70.1875Z" fill="black"/>
<path d="M993.046 131.341C991.623 131.342 990.221 130.995 988.962 130.329L965.589 118.044C965.408 117.947 965.205 117.896 965 117.896C964.795 117.896 964.592 117.947 964.411 118.044L941.041 130.329C939.593 131.091 937.96 131.432 936.328 131.315C934.696 131.197 933.129 130.625 931.805 129.663C930.481 128.701 929.453 127.388 928.836 125.872C928.22 124.356 928.04 122.698 928.317 121.085L932.78 95.0638C932.814 94.8599 932.798 94.6507 932.733 94.4546C932.667 94.2584 932.555 94.0813 932.405 93.9388L913.512 75.5C912.34 74.3572 911.51 72.9087 911.118 71.3187C910.726 69.7286 910.787 68.0606 911.295 66.5035C911.802 64.9465 912.736 63.5627 913.989 62.5089C915.243 61.4551 916.766 60.7735 918.387 60.5413L944.499 56.75C944.702 56.7205 944.895 56.6418 945.061 56.521C945.227 56.4001 945.361 56.2406 945.451 56.0563L957.125 32.375C957.848 30.907 958.968 29.6707 960.357 28.8062C961.747 27.9417 963.35 27.4835 964.987 27.4835C966.623 27.4835 968.227 27.9417 969.617 28.8062C971.006 29.6707 972.126 30.907 972.849 32.375L984.53 56.0488C984.621 56.2325 984.755 56.3915 984.921 56.5123C985.087 56.6331 985.28 56.7121 985.482 56.7425L1011.62 60.5375C1013.24 60.7711 1014.76 61.4534 1016.01 62.5073C1017.26 63.5613 1018.2 64.9447 1018.7 66.5012C1019.21 68.0577 1019.27 69.7251 1018.88 71.3148C1018.49 72.9044 1017.66 74.3529 1016.49 75.4963L997.58 93.9238C997.431 94.0667 997.319 94.2439 997.253 94.4399C997.188 94.6359 997.171 94.8449 997.205 95.0488L1001.67 121.07C1001.88 122.327 1001.82 123.616 1001.49 124.847C1001.15 126.078 1000.55 127.222 999.733 128.198C998.912 129.174 997.888 129.96 996.733 130.5C995.577 131.04 994.318 131.322 993.042 131.326L993.046 131.341ZM965 110.394C966.422 110.393 967.823 110.741 969.08 111.406L992.45 123.688C992.657 123.806 992.894 123.86 993.132 123.843C993.369 123.827 993.597 123.74 993.785 123.594C993.981 123.459 994.134 123.27 994.224 123.049C994.314 122.828 994.337 122.586 994.291 122.353L989.825 96.3275C989.586 94.9269 989.691 93.4893 990.13 92.138C990.569 90.7866 991.329 89.5619 992.345 88.5688L1011.26 70.1375C1011.43 69.9722 1011.54 69.763 1011.6 69.5335C1011.66 69.3039 1011.65 69.0633 1011.57 68.8386C1011.5 68.614 1011.37 68.4143 1011.19 68.2622C1011 68.11 1010.79 68.0114 1010.55 67.9775L984.421 64.1788C983.014 63.9751 981.678 63.432 980.529 62.5963C979.379 61.7607 978.449 60.6577 977.821 59.3825L966.125 35.705C966.02 35.4931 965.858 35.3148 965.658 35.19C965.457 35.0653 965.225 34.9992 964.989 34.9992C964.752 34.9992 964.521 35.0653 964.32 35.19C964.119 35.3148 963.957 35.4931 963.852 35.705L952.179 59.375C951.55 60.6506 950.62 61.754 949.47 62.5896C948.319 63.4253 946.982 63.9682 945.575 64.1713L919.449 67.9775C919.214 68.0107 918.994 68.109 918.813 68.2612C918.632 68.4134 918.497 68.6135 918.424 68.8386C918.351 69.0637 918.342 69.3048 918.4 69.5345C918.457 69.7641 918.577 69.9731 918.747 70.1375L937.655 88.5688C938.671 89.5619 939.431 90.7866 939.87 92.138C940.309 93.4893 940.414 94.9269 940.175 96.3275L935.709 122.353C935.668 122.586 935.694 122.827 935.784 123.047C935.873 123.266 936.022 123.457 936.215 123.596C936.407 123.735 936.634 123.817 936.871 123.833C937.108 123.85 937.344 123.799 937.554 123.688L960.92 111.403C962.178 110.74 963.578 110.394 965 110.394Z" fill="black"/>
<defs>
<clipPath id="clip0">
<rect width="100" height="100" fill="white"/>
</clipPath>
</defs>
</svg>
