<svg width="100" height="100" viewBox="0 0 100 100" fill="none" xmlns="http://www.w3.org/2000/svg">
<path d="M99.4143 36.3283L89.198 22.7066L89.5967 19.917C89.727 19.0041 89.4201 18.083 88.768 17.4311L82.5531 11.2162L88.7678 5.00137C89.9119 3.85742 89.9119 2.00234 88.7678 0.858203C87.6238 -0.285742 85.7687 -0.285742 84.6246 0.858203L78.41 7.07305L72.1951 0.858203C71.5432 0.206055 70.6221 -0.0998047 69.7092 0.0294921L40.7066 4.17266C40.0791 4.2623 39.4977 4.55312 39.0494 5.00137L3.1416 40.9092C-1.04687 45.0975 -1.04687 51.9127 3.1416 56.101L33.525 86.4846C34.1465 87.106 34.827 87.6332 35.5471 88.0701V89.258C35.5471 95.1812 40.366 100 46.2893 100H89.258C95.1812 100 100 95.1812 100 89.258V38.0861C100 37.4523 99.7945 36.8354 99.4143 36.3283ZM7.28477 51.9578C5.38086 50.0539 5.38086 46.9562 7.28477 45.0523L42.5019 9.83516L69.0875 6.0373L74.2666 11.2164L70.1234 15.3596L68.0518 13.2879C66.9078 12.1439 65.0527 12.1439 63.9086 13.2879C62.7645 14.4318 62.7645 16.2869 63.9086 17.4311L72.1951 25.7176C72.7672 26.2896 73.517 26.5758 74.2666 26.5758C75.0162 26.5758 75.7662 26.2896 76.3381 25.7176C77.4822 24.5736 77.4822 22.7186 76.3381 21.5744L74.2664 19.5027L78.4096 15.3596L83.5887 20.5387L79.7906 47.1242L44.5736 82.3414C43.6514 83.2637 42.4252 83.7715 41.1209 83.7715C39.8166 83.7715 38.5904 83.2635 37.6682 82.3414L7.28477 51.9578ZM94.1408 89.258C94.1408 91.9504 91.9504 94.1408 89.258 94.1408H46.2893C43.7182 94.1408 41.6064 92.1432 41.4211 89.6186C44.0709 89.5451 46.6988 88.5025 48.7166 86.4846L84.6244 50.5768C85.0727 50.1285 85.3635 49.5471 85.4531 48.9195L88.026 30.9098L94.1408 39.0627V89.258Z" fill="black"/>
</svg>
