<svg width="120" height="120" viewBox="0 0 120 120" fill="none" xmlns="http://www.w3.org/2000/svg">
<path d="M88.0462 111.341C86.6228 111.342 85.2207 110.995 83.9625 110.329L60.5887 98.0438C60.4076 97.9469 60.2054 97.8963 60 97.8963C59.7946 97.8963 59.5924 97.9469 59.4112 98.0438L36.0412 110.329C34.593 111.091 32.9604 111.432 31.3282 111.315C29.6959 111.197 28.1291 110.625 26.8051 109.663C25.4812 108.701 24.4528 107.388 23.8364 105.872C23.2201 104.356 23.0403 102.698 23.3175 101.085L27.78 75.0638C27.8143 74.8599 27.798 74.6507 27.7326 74.4546C27.6673 74.2584 27.5548 74.0813 27.405 73.9388L8.5125 55.5C7.33951 54.3572 6.51003 52.9087 6.11806 51.3187C5.72609 49.7286 5.78729 48.0606 6.29473 46.5035C6.80217 44.9465 7.73556 43.5627 8.98914 42.5089C10.2427 41.4551 11.7664 40.7735 13.3875 40.5413L39.4987 36.75C39.7019 36.7205 39.8948 36.6418 40.0608 36.521C40.2268 36.4001 40.3608 36.2406 40.4512 36.0563L52.125 12.375C52.8481 10.907 53.9677 9.67071 55.3572 8.80621C56.7467 7.94171 58.3504 7.48352 59.9869 7.48352C61.6233 7.48352 63.2271 7.94171 64.6166 8.80621C66.006 9.67071 67.1257 10.907 67.8487 12.375L79.53 36.0488C79.6212 36.2325 79.7555 36.3915 79.9213 36.5123C80.0871 36.6331 80.2796 36.7121 80.4825 36.7425L106.616 40.5375C108.237 40.7711 109.759 41.4534 111.012 42.5073C112.265 43.5613 113.197 44.9447 113.705 46.5012C114.212 48.0577 114.273 49.7251 113.882 51.3148C113.491 52.9044 112.663 54.3529 111.491 55.4963L92.58 73.9238C92.4308 74.0667 92.3186 74.2439 92.2533 74.4399C92.1879 74.6359 92.1714 74.8449 92.205 75.0488L96.6675 101.07C96.8822 102.327 96.8203 103.616 96.4862 104.847C96.152 106.078 95.5537 107.222 94.7328 108.198C93.9118 109.174 92.888 109.96 91.7327 110.5C90.5772 111.04 89.318 111.322 88.0425 111.326L88.0462 111.341ZM60 90.3938C61.4222 90.3935 62.8229 90.7411 64.08 91.4063L87.45 103.688C87.6568 103.806 87.8941 103.86 88.1317 103.843C88.3694 103.827 88.5967 103.74 88.785 103.594C88.9815 103.459 89.1341 103.27 89.2241 103.049C89.3141 102.828 89.3374 102.586 89.2913 102.353L84.825 76.3275C84.5864 74.9269 84.6911 73.4893 85.13 72.138C85.5689 70.7866 86.3289 69.5619 87.345 68.5688L106.256 50.1375C106.425 49.9722 106.544 49.763 106.601 49.5335C106.657 49.3039 106.648 49.0633 106.574 48.8386C106.501 48.614 106.366 48.4143 106.186 48.2622C106.005 48.11 105.785 48.0114 105.551 47.9775L79.4212 44.1788C78.0145 43.9751 76.6784 43.432 75.5285 42.5963C74.3786 41.7607 73.4494 40.6577 72.8213 39.3825L61.125 15.705C61.0202 15.4931 60.8583 15.3148 60.6576 15.19C60.4568 15.0653 60.2251 14.9992 59.9887 14.9992C59.7524 14.9992 59.5207 15.0653 59.3199 15.19C59.1192 15.3148 58.9572 15.4931 58.8525 15.705L47.1787 39.375C46.5502 40.6506 45.6205 41.754 44.4699 42.5896C43.3193 43.4253 41.9825 43.9682 40.575 44.1713L14.4487 47.9775C14.2144 48.0107 13.9941 48.109 13.8129 48.2612C13.6317 48.4134 13.4968 48.6135 13.4238 48.8386C13.3507 49.0637 13.3423 49.3048 13.3995 49.5345C13.4567 49.7641 13.5773 49.9731 13.7475 50.1375L32.655 68.5688C33.6711 69.5619 34.4311 70.7866 34.87 72.138C35.3089 73.4893 35.4136 74.9269 35.175 76.3275L30.7087 102.353C30.6682 102.586 30.6942 102.827 30.7836 103.047C30.873 103.266 31.0224 103.457 31.2146 103.596C31.4069 103.735 31.6343 103.817 31.871 103.833C32.1078 103.85 32.3443 103.799 32.5537 103.688L55.92 91.4025C57.1779 90.74 58.5783 90.3938 60 90.3938Z" fill="black"/>
</svg>
