<svg width="100" height="100" viewBox="0 0 100 100" fill="none" xmlns="http://www.w3.org/2000/svg">
<path d="M92.9688 12.5H87.5V7.03125C87.4984 5.58134 86.9217 4.19127 85.8965 3.16603C84.8712 2.14079 83.4812 1.5641 82.0312 1.5625H17.9688C16.5188 1.5641 15.1288 2.14079 14.1035 3.16603C13.0783 4.19127 12.5016 5.58134 12.5 7.03125V12.5H7.03125C5.58134 12.5016 4.19127 13.0783 3.16603 14.1035C2.14079 15.1288 1.5641 16.5188 1.5625 17.9688V77.3438C1.5641 78.7937 2.14079 80.1837 3.16603 81.209C4.19127 82.2342 5.58134 82.8109 7.03125 82.8125H36.9902L34.7598 90.625H28.125C27.7106 90.625 27.3132 90.7896 27.0201 91.0826C26.7271 91.3757 26.5625 91.7731 26.5625 92.1875V96.875C26.5625 97.2894 26.7271 97.6868 27.0201 97.9799C27.3132 98.2729 27.7106 98.4375 28.125 98.4375H71.875C72.2894 98.4375 72.6868 98.2729 72.9799 97.9799C73.2729 97.6868 73.4375 97.2894 73.4375 96.875V92.1875C73.4375 91.7731 73.2729 91.3757 72.9799 91.0826C72.6868 90.7896 72.2894 90.625 71.875 90.625H65.2402L63.0098 82.8125H92.9688C94.4187 82.8109 95.8087 82.2342 96.834 81.209C97.8592 80.1837 98.4359 78.7937 98.4375 77.3438V17.9688C98.4359 16.5188 97.8592 15.1288 96.834 14.1035C95.8087 13.0783 94.4187 12.5016 92.9688 12.5ZM15.625 7.03125C15.6255 6.40981 15.8726 5.81397 16.312 5.37454C16.7515 4.93511 17.3473 4.68802 17.9688 4.6875H82.0312C82.6527 4.68802 83.2485 4.93511 83.688 5.37454C84.1274 5.81397 84.3745 6.40981 84.375 7.03125V10.9375H15.625V7.03125ZM15.625 14.0625H84.375V61.7188C84.3745 62.3402 84.1274 62.936 83.688 63.3755C83.2485 63.8149 82.6527 64.062 82.0312 64.0625H53.125V51.5625C53.123 49.9342 52.4865 48.3708 51.3506 47.2042C50.2146 46.0376 48.6687 45.3597 47.041 45.3145L40.625 44.0312V43.0957C42.017 42.4866 43.2015 41.4853 44.0339 40.2141C44.8663 38.943 45.3106 37.457 45.3125 35.9375V29.6875C45.3104 27.6161 44.4867 25.6302 43.022 24.1655C41.5573 22.7008 39.5714 21.8771 37.5 21.875H34.375C32.3036 21.8771 30.3177 22.7008 28.853 24.1655C27.3883 25.6302 26.5646 27.6161 26.5625 29.6875V35.9375C26.5644 37.457 27.0087 38.943 27.8411 40.2141C28.6735 41.4853 29.858 42.4866 31.25 43.0957V44.0312L24.834 45.3145C23.2063 45.3597 21.6604 46.0376 20.5245 47.2042C19.3885 48.3708 18.752 49.9342 18.75 51.5625V64.0625H17.9688C17.3473 64.062 16.7515 63.8149 16.312 63.3755C15.8726 62.936 15.6255 62.3402 15.625 61.7188V14.0625ZM45.3125 54.6875C44.8981 54.6875 44.5007 54.8521 44.2076 55.1451C43.9146 55.4382 43.75 55.8356 43.75 56.25V64.0625H28.125V56.25C28.125 55.8356 27.9604 55.4382 27.6674 55.1451C27.3743 54.8521 26.9769 54.6875 26.5625 54.6875C26.1481 54.6875 25.7507 54.8521 25.4576 55.1451C25.1646 55.4382 25 55.8356 25 56.25V64.0625H21.875V51.5625C21.8761 50.734 22.2057 49.9398 22.7915 49.354C23.3773 48.7682 24.1715 48.4386 25 48.4375C25.103 48.4378 25.2058 48.4274 25.3066 48.4062L31.623 47.1445C31.9827 47.9913 32.5835 48.7135 33.3507 49.2211C34.1179 49.7288 35.0175 49.9995 35.9375 49.9995C36.8575 49.9995 37.7571 49.7288 38.5243 49.2211C39.2915 48.7135 39.8923 47.9913 40.252 47.1445L46.5684 48.4062C46.6692 48.4274 46.772 48.4378 46.875 48.4375C47.7035 48.4386 48.4977 48.7682 49.0835 49.354C49.6693 49.9398 49.9989 50.734 50 51.5625V64.0625H46.875V56.25C46.875 55.8356 46.7104 55.4382 46.4174 55.1451C46.1243 54.8521 45.7269 54.6875 45.3125 54.6875ZM42.1875 32.2129V35.9375C42.1858 37.1802 41.6915 38.3715 40.8127 39.2502C39.934 40.129 38.7427 40.6233 37.5 40.625H34.375C33.1323 40.6233 31.941 40.129 31.0623 39.2502C30.1835 38.3715 29.6892 37.1802 29.6875 35.9375V34.3379C32.4004 34.2324 38.0586 33.8203 42.1875 32.2129ZM29.6875 31.2129V29.6875C29.6892 28.4448 30.1835 27.2535 31.0623 26.3748C31.941 25.496 33.1323 25.0017 34.375 25H37.5C38.595 25.0017 39.655 25.3859 40.4967 26.0864C41.3384 26.7869 41.9088 27.7594 42.1094 28.8359C38.8594 30.4961 33.0469 31.0742 29.6875 31.2129ZM37.5 43.75V45.3125C37.5 45.7269 37.3354 46.1243 37.0424 46.4174C36.7493 46.7104 36.3519 46.875 35.9375 46.875C35.5231 46.875 35.1257 46.7104 34.8326 46.4174C34.5396 46.1243 34.375 45.7269 34.375 45.3125V43.75H37.5ZM70.3125 93.75V95.3125H29.6875V93.75H70.3125ZM38.0098 90.625L40.2402 82.8125H59.7598L61.9902 90.625H38.0098ZM95.3125 77.3438C95.312 77.9652 95.0649 78.561 94.6255 79.0005C94.186 79.4399 93.5902 79.687 92.9688 79.6875H7.03125C6.40981 79.687 5.81397 79.4399 5.37454 79.0005C4.93511 78.561 4.68802 77.9652 4.6875 77.3438V73.4375H95.3125V77.3438ZM95.3125 70.3125H4.6875V17.9688C4.68802 17.3473 4.93511 16.7515 5.37454 16.312C5.81397 15.8726 6.40981 15.6255 7.03125 15.625H12.5V61.7188C12.5016 63.1687 13.0783 64.5587 14.1035 65.584C15.1288 66.6092 16.5188 67.1859 17.9688 67.1875H82.0312C83.4812 67.1859 84.8712 66.6092 85.8965 65.584C86.9217 64.5587 87.4984 63.1687 87.5 61.7188V15.625H92.9688C93.5902 15.6255 94.186 15.8726 94.6255 16.312C95.0649 16.7515 95.312 17.3473 95.3125 17.9688V70.3125Z" fill="black"/>
<path d="M18.75 9.375H20.3125C20.7269 9.375 21.1243 9.21038 21.4174 8.91735C21.7104 8.62433 21.875 8.2269 21.875 7.8125C21.875 7.3981 21.7104 7.00067 21.4174 6.70765C21.1243 6.41462 20.7269 6.25 20.3125 6.25H18.75C18.3356 6.25 17.9382 6.41462 17.6451 6.70765C17.3521 7.00067 17.1875 7.3981 17.1875 7.8125C17.1875 8.2269 17.3521 8.62433 17.6451 8.91735C17.9382 9.21038 18.3356 9.375 18.75 9.375Z" fill="black"/>
<path d="M25 9.375H26.5625C26.9769 9.375 27.3743 9.21038 27.6674 8.91735C27.9604 8.62433 28.125 8.2269 28.125 7.8125C28.125 7.3981 27.9604 7.00067 27.6674 6.70765C27.3743 6.41462 26.9769 6.25 26.5625 6.25H25C24.5856 6.25 24.1882 6.41462 23.8951 6.70765C23.6021 7.00067 23.4375 7.3981 23.4375 7.8125C23.4375 8.2269 23.6021 8.62433 23.8951 8.91735C24.1882 9.21038 24.5856 9.375 25 9.375Z" fill="black"/>
<path d="M31.25 9.375H32.8125C33.2269 9.375 33.6243 9.21038 33.9174 8.91735C34.2104 8.62433 34.375 8.2269 34.375 7.8125C34.375 7.3981 34.2104 7.00067 33.9174 6.70765C33.6243 6.41462 33.2269 6.25 32.8125 6.25H31.25C30.8356 6.25 30.4382 6.41462 30.1451 6.70765C29.8521 7.00067 29.6875 7.3981 29.6875 7.8125C29.6875 8.2269 29.8521 8.62433 30.1451 8.91735C30.4382 9.21038 30.8356 9.375 31.25 9.375Z" fill="black"/>
<path d="M81.25 15.625H56.25C55.8356 15.625 55.4382 15.7896 55.1451 16.0826C54.8521 16.3757 54.6875 16.7731 54.6875 17.1875V43.75C54.6875 44.1644 54.8521 44.5618 55.1451 44.8549C55.4382 45.1479 55.8356 45.3125 56.25 45.3125H81.25C81.6644 45.3125 82.0618 45.1479 82.3549 44.8549C82.6479 44.5618 82.8125 44.1644 82.8125 43.75V17.1875C82.8125 16.7731 82.6479 16.3757 82.3549 16.0826C82.0618 15.7896 81.6644 15.625 81.25 15.625ZM75 42.1875H62.5V40.2344C62.5013 39.0952 62.9545 38.003 63.76 37.1975C64.5655 36.392 65.6577 35.9388 66.7969 35.9375H70.7031C71.8423 35.9388 72.9345 36.392 73.74 37.1975C74.5455 38.003 74.9987 39.0952 75 40.2344V42.1875ZM65.625 28.9062V25.7812C65.6255 25.1598 65.8726 24.564 66.312 24.1245C66.7515 23.6851 67.3473 23.438 67.9688 23.4375H69.5312C70.1527 23.438 70.7485 23.6851 71.188 24.1245C71.6274 24.564 71.8745 25.1598 71.875 25.7812V28.9062C71.8745 29.5277 71.6274 30.1235 71.188 30.563C70.7485 31.0024 70.1527 31.2495 69.5312 31.25H67.9688C67.3473 31.2495 66.7515 31.0024 66.312 30.563C65.8726 30.1235 65.6255 29.5277 65.625 28.9062ZM79.6875 42.1875H78.125V40.2344C78.123 38.6608 77.6217 37.1285 76.6934 35.8579C75.765 34.5874 74.4575 33.6442 72.959 33.1641C73.5958 32.652 74.1097 32.0037 74.4629 31.2669C74.8161 30.53 74.9996 29.7234 75 28.9062V25.7812C74.9984 24.3313 74.4217 22.9413 73.3965 21.916C72.3712 20.8908 70.9812 20.3141 69.5312 20.3125H67.9688C66.5188 20.3141 65.1288 20.8908 64.1035 21.916C63.0783 22.9413 62.5016 24.3313 62.5 25.7812V28.9062C62.5004 29.7234 62.6839 30.53 63.0371 31.2669C63.3903 32.0037 63.9042 32.652 64.541 33.1641C63.0425 33.6442 61.735 34.5874 60.8066 35.8579C59.8783 37.1285 59.377 38.6608 59.375 40.2344V42.1875H57.8125V18.75H79.6875V42.1875Z" fill="black"/>
</svg>
